<svg width="10" height="17" viewBox="0 0 10 17" fill="none" xmlns="http://www.w3.org/2000/svg">
<path d="M9.20473 16.261C9.43907 16.0266 9.57072 15.7087 9.57072 15.3772C9.57072 15.0458 9.43907 14.7279 9.20473 14.4935L3.01723 8.30597L9.20473 2.11847C9.43243 1.88272 9.55842 1.56696 9.55557 1.23922C9.55273 0.911471 9.42127 0.597955 9.18951 0.366195C8.95775 0.134435 8.64423 0.00297509 8.31648 0.000127429C7.98874 -0.00272023 7.67299 0.123272 7.43723 0.350971L0.365983 7.42222C0.131644 7.65663 -3.7821e-07 7.97451 -3.63722e-07 8.30597C-3.49233e-07 8.63743 0.131644 8.95531 0.365983 9.18972L7.43723 16.261C7.67164 16.4953 7.98953 16.627 8.32098 16.627C8.65244 16.627 8.97032 16.4953 9.20473 16.261Z" fill="white"/>
</svg>
